<svg viewBox="0 0 330 200" xmlns="http://www.w3.org/2000/svg"><g><g><g><g><g><line x1="54" y1="178" x2="49" y2="178" style="visibility: inherit;" fill="rgb(0, 0, 0)" stroke="rgb(204, 204, 204)" stroke-width="1px"></line><line x1="54" y1="163.16666666666666" x2="49" y2="163.16666666666666" style="visibility: inherit;" fill="rgb(0, 0, 0)" stroke="rgb(204, 204, 204)" stroke-width="1px"></line><line x1="54" y1="148.33333333333334" x2="49" y2="148.33333333333334" style="visibility: inherit;" fill="rgb(0, 0, 0)" stroke="rgb(204, 204, 204)" stroke-width="1px"></line><line x1="54" y1="133.5" x2="49" y2="133.5" style="visibility: inherit;" fill="rgb(0, 0, 0)" stroke="rgb(204, 204, 204)" stroke-width="1px"></line><line x1="54" y1="118.66666666666664" x2="49" y2="118.66666666666664" style="visibility: inherit;" fill="rgb(0, 0, 0)" stroke="rgb(204, 204, 204)" stroke-width="1px"></line><line x1="54" y1="103.83333333333336" x2="49" y2="103.83333333333336" style="visibility: inherit;" fill="rgb(0, 0, 0)" stroke="rgb(204, 204, 204)" stroke-width="1px"></line><line x1="54" y1="89" x2="49" y2="89" style="visibility: inherit;" fill="rgb(0, 0, 0)" stroke="rgb(204, 204, 204)" stroke-width="1px"></line><line x1="54" y1="74.16666666666666" x2="49" y2="74.16666666666666" style="visibility: inherit;" fill="rgb(0, 0, 0)" stroke="rgb(204, 204, 204)" stroke-width="1px"></line><line x1="54" y1="59.3333333333333" x2="49" y2="59.3333333333333" style="visibility: inherit;" fill="rgb(0, 0, 0)" stroke="rgb(204, 204, 204)" stroke-width="1px"></line><line x1="54" y1="44.49999999999996" x2="49" y2="44.49999999999996" style="visibility: inherit;" fill="rgb(0, 0, 0)" stroke="rgb(204, 204, 204)" stroke-width="1px"></line><line x1="54" y1="29.6666666666667" x2="49" y2="29.6666666666667" style="visibility: inherit;" fill="rgb(0, 0, 0)" stroke="rgb(204, 204, 204)" stroke-width="1px"></line><line x1="54" y1="14.83333333333334" x2="49" y2="14.83333333333334" style="visibility: inherit;" fill="rgb(0, 0, 0)" stroke="rgb(204, 204, 204)" stroke-width="1px"></line><line x1="54" y1="0" x2="49" y2="0" style="visibility: inherit;" fill="rgb(0, 0, 0)" stroke="rgb(204, 204, 204)" stroke-width="1px"></line></g><g transform="translate(44, 0)"><text x="0" y="178" dx="0em" dy="0.3em" style="text-anchor: end; visibility: hidden; font-family: Roboto, sans-serif; font-size: 12px; font-weight: 200;" fill="rgb(50, 49, 63)" stroke="none" stroke-width="1px">0.38</text><text x="0" y="163.16666666666666" dx="0em" dy="0.3em" style="text-anchor: end; visibility: inherit; font-family: Roboto, sans-serif; font-size: 12px; font-weight: 200;" fill="rgb(50, 49, 63)" stroke="none" stroke-width="1px">0.4</text><text x="0" y="148.33333333333334" dx="0em" dy="0.3em" style="text-anchor: end; visibility: hidden; font-family: Roboto, sans-serif; font-size: 12px; font-weight: 200;" fill="rgb(50, 49, 63)" stroke="none" stroke-width="1px">0.42</text><text x="0" y="133.5" dx="0em" dy="0.3em" style="text-anchor: end; visibility: inherit; font-family: Roboto, sans-serif; font-size: 12px; font-weight: 200;" fill="rgb(50, 49, 63)" stroke="none" stroke-width="1px">0.44</text><text x="0" y="118.66666666666664" dx="0em" dy="0.3em" style="text-anchor: end; visibility: hidden; font-family: Roboto, sans-serif; font-size: 12px; font-weight: 200;" fill="rgb(50, 49, 63)" stroke="none" stroke-width="1px">0.46</text><text x="0" y="103.83333333333336" dx="0em" dy="0.3em" style="text-anchor: end; visibility: inherit; font-family: Roboto, sans-serif; font-size: 12px; font-weight: 200;" fill="rgb(50, 49, 63)" stroke="none" stroke-width="1px">0.48</text><text x="0" y="89" dx="0em" dy="0.3em" style="text-anchor: end; visibility: hidden; font-family: Roboto, sans-serif; font-size: 12px; font-weight: 200;" fill="rgb(50, 49, 63)" stroke="none" stroke-width="1px">0.5</text><text x="0" y="74.16666666666666" dx="0em" dy="0.3em" style="text-anchor: end; visibility: inherit; font-family: Roboto, sans-serif; font-size: 12px; font-weight: 200;" fill="rgb(50, 49, 63)" stroke="none" stroke-width="1px">0.52</text><text x="0" y="59.3333333333333" dx="0em" dy="0.3em" style="text-anchor: end; visibility: hidden; font-family: Roboto, sans-serif; font-size: 12px; font-weight: 200;" fill="rgb(50, 49, 63)" stroke="none" stroke-width="1px">0.54</text><text x="0" y="44.49999999999996" dx="0em" dy="0.3em" style="text-anchor: end; visibility: inherit; font-family: Roboto, sans-serif; font-size: 12px; font-weight: 200;" fill="rgb(50, 49, 63)" stroke="none" stroke-width="1px">0.56</text><text x="0" y="29.6666666666667" dx="0em" dy="0.3em" style="text-anchor: end; visibility: hidden; font-family: Roboto, sans-serif; font-size: 12px; font-weight: 200;" fill="rgb(50, 49, 63)" stroke="none" stroke-width="1px">0.58</text><text x="0" y="14.83333333333334" dx="0em" dy="0.3em" style="text-anchor: end; visibility: inherit; font-family: Roboto, sans-serif; font-size: 12px; font-weight: 200;" fill="rgb(50, 49, 63)" stroke="none" stroke-width="1px">0.6</text><text x="0" y="0" dx="0em" dy="0.3em" style="text-anchor: end; visibility: hidden; font-family: Roboto, sans-serif; font-size: 12px; font-weight: 200;" fill="rgb(50, 49, 63)" stroke="none" stroke-width="1px">0.62</text></g><line x1="54" y1="0" x2="54" y2="178" fill="rgb(0, 0, 0)" stroke="rgb(204, 204, 204)" stroke-width="1px"></line></g></g><g transform="translate(54, 0)" clip-path="url(#clip_0)"><clipPath id="clip_0"><rect width="276" height="178"></rect></clipPath><g><g><g><line x1="0" y1="0" x2="0" y2="178" fill="rgb(0, 0, 0)" stroke="rgb(60, 60, 60)" stroke-width="1px" opacity="0.25"></line><line x1="23" y1="0" x2="23" y2="178" fill="rgb(0, 0, 0)" stroke="rgb(60, 60, 60)" stroke-width="1px" opacity="0.25"></line><line x1="46" y1="0" x2="46" y2="178" fill="rgb(0, 0, 0)" stroke="rgb(60, 60, 60)" stroke-width="1px" opacity="0.25"></line><line x1="69" y1="0" x2="69" y2="178" fill="rgb(0, 0, 0)" stroke="rgb(60, 60, 60)" stroke-width="1px" opacity="0.25"></line><line x1="92" y1="0" x2="92" y2="178" fill="rgb(0, 0, 0)" stroke="rgb(60, 60, 60)" stroke-width="1px" opacity="0.25"></line><line x1="115" y1="0" x2="115" y2="178" fill="rgb(0, 0, 0)" stroke="rgb(60, 60, 60)" stroke-width="1px" opacity="0.25"></line><line x1="138" y1="0" x2="138" y2="178" fill="rgb(0, 0, 0)" stroke="rgb(60, 60, 60)" stroke-width="1px" opacity="0.25"></line><line x1="161" y1="0" x2="161" y2="178" fill="rgb(0, 0, 0)" stroke="rgb(60, 60, 60)" stroke-width="1px" opacity="0.25"></line><line x1="184" y1="0" x2="184" y2="178" fill="rgb(0, 0, 0)" stroke="rgb(60, 60, 60)" stroke-width="1px" opacity="0.25"></line><line x1="207" y1="0" x2="207" y2="178" fill="rgb(0, 0, 0)" stroke="rgb(60, 60, 60)" stroke-width="1px" opacity="0.25"></line><line x1="230" y1="0" x2="230" y2="178" fill="rgb(0, 0, 0)" stroke="rgb(60, 60, 60)" stroke-width="1px" opacity="0.25"></line><line x1="253" y1="0" x2="253" y2="178" fill="rgb(0, 0, 0)" stroke="rgb(60, 60, 60)" stroke-width="1px" opacity="0.25"></line><line x1="276" y1="0" x2="276" y2="178" fill="rgb(0, 0, 0)" stroke="rgb(60, 60, 60)" stroke-width="1px" opacity="0.25"></line></g><g><line x1="0" y1="178" x2="276" y2="178" fill="rgb(0, 0, 0)" stroke="rgb(60, 60, 60)" stroke-width="1px" opacity="0.25"></line><line x1="0" y1="163.16666666666666" x2="276" y2="163.16666666666666" fill="rgb(0, 0, 0)" stroke="rgb(60, 60, 60)" stroke-width="1px" opacity="0.25"></line><line x1="0" y1="148.33333333333334" x2="276" y2="148.33333333333334" fill="rgb(0, 0, 0)" stroke="rgb(60, 60, 60)" stroke-width="1px" opacity="0.25"></line><line x1="0" y1="133.5" x2="276" y2="133.5" fill="rgb(0, 0, 0)" stroke="rgb(60, 60, 60)" stroke-width="1px" opacity="0.25"></line><line x1="0" y1="118.66666666666664" x2="276" y2="118.66666666666664" fill="rgb(0, 0, 0)" stroke="rgb(60, 60, 60)" stroke-width="1px" opacity="0.25"></line><line x1="0" y1="103.83333333333336" x2="276" y2="103.83333333333336" fill="rgb(0, 0, 0)" stroke="rgb(60, 60, 60)" stroke-width="1px" opacity="0.25"></line><line x1="0" y1="89" x2="276" y2="89" fill="rgb(0, 0, 0)" stroke="rgb(60, 60, 60)" stroke-width="1px" opacity="0.25"></line><line x1="0" y1="74.16666666666666" x2="276" y2="74.16666666666666" fill="rgb(0, 0, 0)" stroke="rgb(60, 60, 60)" stroke-width="1px" opacity="0.25"></line><line x1="0" y1="59.3333333333333" x2="276" y2="59.3333333333333" fill="rgb(0, 0, 0)" stroke="rgb(60, 60, 60)" stroke-width="1px" opacity="0.25"></line><line x1="0" y1="44.49999999999996" x2="276" y2="44.49999999999996" fill="rgb(0, 0, 0)" stroke="rgb(60, 60, 60)" stroke-width="1px" opacity="0.25"></line><line x1="0" y1="29.6666666666667" x2="276" y2="29.6666666666667" fill="rgb(0, 0, 0)" stroke="rgb(60, 60, 60)" stroke-width="1px" opacity="0.25"></line><line x1="0" y1="14.83333333333334" x2="276" y2="14.83333333333334" fill="rgb(0, 0, 0)" stroke="rgb(60, 60, 60)" stroke-width="1px" opacity="0.25"></line><line x1="0" y1="0" x2="276" y2="0" fill="rgb(0, 0, 0)" stroke="rgb(60, 60, 60)" stroke-width="1px" opacity="0.25"></line></g></g></g><g><g><line x1="0" y1="459.83333333333337" x2="276" y2="459.83333333333337" fill="rgb(0, 0, 0)" stroke="rgb(153, 153, 153)" stroke-width="1.5px"></line></g></g><g><g><line x1="23" y1="0" x2="23" y2="178" fill="rgb(0, 0, 0)" stroke="rgb(153, 153, 153)" stroke-width="1.5px"></line></g></g><g><g><g><g><g><path stroke="rgb(255, 112, 67)" stroke-width="2px" d="M23,53.458148181438446L25.299999999999997,37.951050622024745L27.6,35.75888978602364L29.900000000000002,38.00507993148121L32.2,44.14213270390043L34.5,51.40026933657816L36.8,60.55927066641704L39.1,70.65186871874717L41.4,81.60375122665836L43.699999999999996,94.9840619611042L46,106.34348017853917L48.3,114.59431056841413L50.599999999999994,123.8287926310621L52.900000000000006,130.35240494845888L55.2,136.26759962423188L57.5,141.47062484063636L59.800000000000004,146.0292798599903L62.1,143.32223971557602L64.4,140.94345678086512L66.7,145.43364028875519L69,142.58965306578156L71.30000000000001,143.07131562861323L73.6,142.78915822560134L75.9,140.80577346956034L78.2,134.51869054953096L80.5,132.0205832809391L82.8,133.2823168293719L85.10000000000001,133.0256062517299L87.39999999999999,133.45325517572542L89.7,132.431530398715L92,129.77357441297895L94.3,128.85284718920323L96.6,126.32896364104128L98.9,123.88535630073865L101.19999999999999,121.88890898292141L103.5,119.62803931314865L105.80000000000001,116.92246072764755L108.1,116.28906336599586L110.4,112.4799298736283L112.7,113.25826868829854L115,111.60000055420376L117.3,110.71900889947595L119.60000000000001,109.1290382172024L121.89999999999999,107.44483170175648L124.2,105.44516373891476L126.5,103.10405614324888L128.8,102.12534675257218L131.1,101.47469887748919L133.4,99.4009510703584L135.7,97.51788798793801L138,97.90061404229293L140.29999999999998,97.80123211110127L142.60000000000002,97.94255888883292L144.9,95.7689647261382L147.2,96.11538631397849L149.5,93.7778424362864L151.8,92.96683595162992L154.1,93.96128788056039L156.4,93.31862446872317L158.7,90.68281078779265L161,90.78159005889891L163.3,91.94323221944087L165.6,90.1878842884902L167.89999999999998,89.89277424152407L170.20000000000002,89.66766765198176L172.5,89.90869482026972L174.79999999999998,89.61566445529375L177.10000000000002,89.59431884174509L179.4,89.03108972875508L181.7,88.35204913274153L184,89.49398650502226L186.3,89.06532449919757L188.6,87.95166571666245L190.9,88.32306602178265L193.2,89.67800687064934L195.5,88.42241750994913L197.8,88.59177413858782L200.1,89.66555256818745L202.39999999999998,88.98247195610163L204.70000000000002,90.04076346951663L207,89.62496044028869L209.29999999999998,89.98461619272904L211.60000000000002,90.96256371900222L213.9,92.79257083837341L216.2,92.39677705274886L218.5,91.91412824897056L220.8,90.92658012885484L223.1,90.9823047031997L225.4,91.87432320460843L227.7,93.23406927680297L230,95.11609200391065L232.3,95.20029274015428L234.6,94.67350889518818L236.89999999999998,94.08487965786193L239.20000000000002,94.68806953237133L241.5,92.70316670241512L243.79999999999998,93.49141276037841L246.10000000000002,93.0038230068511L248.4,93.17212648154909" style="fill: none;" fill="none"></path></g></g></g></g><g opacity="0.2"><g><g><g><path stroke="rgb(255, 112, 67)" stroke-width="2px" d="M23,53.458148181438446L25.299999999999997,30.9728567202886L27.6,34.32850484053293L29.900000000000002,39.675403078397125L32.2,48.957456092039735L34.5,57.229163189729064L36.8,67.99077286322913L39.1,78.87859288851419L41.4,90.54931495587033L43.699999999999996,105.92330514391261L46,115.63438494006795L48.3,121.34395558635396L50.599999999999994,131.38375698526698L52.900000000000006,135.68974032004675L55.2,141.10723678270978L57.5,145.72761872410774L59.800000000000004,149.75907796621323L62.1,141.1073915064335L64.4,138.99718094865483L66.7,149.107425848643L69,140.26275469859442L71.30000000000001,143.46540315945944L73.6,142.55830217401189L75.9,139.18300414085388L78.2,129.3747136394183L80.5,129.9766773382823L82.8,134.3146442770958L85.10000000000001,132.81557032465935L87.39999999999999,133.80314974983534L89.7,131.59557376305264L92,127.59888315200806L94.3,128.09952491521835L96.6,124.26396801074344L98.9,121.88604120413464L101.19999999999999,120.25545208652812L103.5,117.77823685606319L105.80000000000001,114.70880552132923L108.1,115.77082916100818L110.4,109.36336610714596L112.7,113.89509135484695L115,110.24323571721715L117.3,109.99819754560787L119.60000000000001,107.82815311352414L121.89999999999999,106.06684455275536L124.2,103.80907176931697L126.5,101.18860447406769L128.8,101.32458452383679L131.1,100.9423506160577L133.4,97.70424831906956L135.7,95.97720001141232L138,98.21375354131061L140.29999999999998,97.71991962194443L142.60000000000002,98.0581898887952L144.9,93.99056950211525L147.2,96.39882215857506L149.5,91.86530653635663L151.8,92.3032851914565L154.1,94.77493036786717L156.4,92.79280894994736L158.7,88.52623595794043L161,90.86240946253139L163.3,92.89366671442986L165.6,88.75169052680334L167.89999999999998,89.65132056673366L170.20000000000002,89.48348953326541L172.5,90.10589886705083L174.79999999999998,89.37591233849525L177.10000000000002,89.57685424884158L179.4,88.57026590903601L181.7,87.79647046327591L184,90.4282989005248L186.3,88.71460103988647L188.6,87.04049034913382L190.9,88.62693899869919L193.2,90.78659483790398L195.5,87.39511712392172L197.8,88.73033865292868L200.1,90.54409855604172L202.39999999999998,88.42358781894049L204.70000000000002,90.90663834412891L207,89.28475796182948L209.29999999999998,90.27887999018031L211.60000000000002,91.76270260413486L213.9,94.2898493905862L216.2,92.07294577360153L218.5,91.51923377315205L220.8,90.11858621239662L223.1,91.02789753675461L225.4,92.60415652394295L227.7,94.34658879041672L230,96.65592878063518L232.3,95.26918425162631L234.6,94.24250393112499L236.89999999999998,93.60327391823131L239.20000000000002,95.18158852060634L241.5,91.07915529608727L243.79999999999998,94.13634135325748L246.10000000000002,92.60488593578339L248.4,93.30982932448387" style="fill: none;" fill="none"></path></g></g></g></g></g></g><g transform="translate(54, 178)" clip-path="url(#clip_1)"><clipPath id="clip_1"><rect width="276" height="22"></rect></clipPath><g><g><line x1="0" y1="0" x2="0" y2="5" style="visibility: inherit;" fill="rgb(0, 0, 0)" stroke="rgb(204, 204, 204)" stroke-width="1px"></line><line x1="23" y1="0" x2="23" y2="5" style="visibility: inherit;" fill="rgb(0, 0, 0)" stroke="rgb(204, 204, 204)" stroke-width="1px"></line><line x1="46" y1="0" x2="46" y2="5" style="visibility: inherit;" fill="rgb(0, 0, 0)" stroke="rgb(204, 204, 204)" stroke-width="1px"></line><line x1="69" y1="0" x2="69" y2="5" style="visibility: inherit;" fill="rgb(0, 0, 0)" stroke="rgb(204, 204, 204)" stroke-width="1px"></line><line x1="92" y1="0" x2="92" y2="5" style="visibility: inherit;" fill="rgb(0, 0, 0)" stroke="rgb(204, 204, 204)" stroke-width="1px"></line><line x1="115" y1="0" x2="115" y2="5" style="visibility: inherit;" fill="rgb(0, 0, 0)" stroke="rgb(204, 204, 204)" stroke-width="1px"></line><line x1="138" y1="0" x2="138" y2="5" style="visibility: inherit;" fill="rgb(0, 0, 0)" stroke="rgb(204, 204, 204)" stroke-width="1px"></line><line x1="161" y1="0" x2="161" y2="5" style="visibility: inherit;" fill="rgb(0, 0, 0)" stroke="rgb(204, 204, 204)" stroke-width="1px"></line><line x1="184" y1="0" x2="184" y2="5" style="visibility: inherit;" fill="rgb(0, 0, 0)" stroke="rgb(204, 204, 204)" stroke-width="1px"></line><line x1="207" y1="0" x2="207" y2="5" style="visibility: inherit;" fill="rgb(0, 0, 0)" stroke="rgb(204, 204, 204)" stroke-width="1px"></line><line x1="230" y1="0" x2="230" y2="5" style="visibility: inherit;" fill="rgb(0, 0, 0)" stroke="rgb(204, 204, 204)" stroke-width="1px"></line><line x1="253" y1="0" x2="253" y2="5" style="visibility: inherit;" fill="rgb(0, 0, 0)" stroke="rgb(204, 204, 204)" stroke-width="1px"></line><line x1="276" y1="0" x2="276" y2="5" style="visibility: inherit;" fill="rgb(0, 0, 0)" stroke="rgb(204, 204, 204)" stroke-width="1px"></line></g><g transform="translate(0, 8)"><text x="0" y="0" dx="0em" dy="0.95em" style="text-anchor: middle; visibility: hidden; font-family: Roboto, sans-serif; font-size: 12px; font-weight: 200;" fill="rgb(50, 49, 63)" stroke="none" stroke-width="1px">-10</text><text x="23" y="0" dx="0em" dy="0.95em" style="text-anchor: middle; visibility: inherit; font-family: Roboto, sans-serif; font-size: 12px; font-weight: 200;" fill="rgb(50, 49, 63)" stroke="none" stroke-width="1px">0</text><text x="46" y="0" dx="0em" dy="0.95em" style="text-anchor: middle; visibility: inherit; font-family: Roboto, sans-serif; font-size: 12px; font-weight: 200;" fill="rgb(50, 49, 63)" stroke="none" stroke-width="1px">10</text><text x="69" y="0" dx="0em" dy="0.95em" style="text-anchor: middle; visibility: inherit; font-family: Roboto, sans-serif; font-size: 12px; font-weight: 200;" fill="rgb(50, 49, 63)" stroke="none" stroke-width="1px">20</text><text x="92" y="0" dx="0em" dy="0.95em" style="text-anchor: middle; visibility: inherit; font-family: Roboto, sans-serif; font-size: 12px; font-weight: 200;" fill="rgb(50, 49, 63)" stroke="none" stroke-width="1px">30</text><text x="115" y="0" dx="0em" dy="0.95em" style="text-anchor: middle; visibility: inherit; font-family: Roboto, sans-serif; font-size: 12px; font-weight: 200;" fill="rgb(50, 49, 63)" stroke="none" stroke-width="1px">40</text><text x="138" y="0" dx="0em" dy="0.95em" style="text-anchor: middle; visibility: inherit; font-family: Roboto, sans-serif; font-size: 12px; font-weight: 200;" fill="rgb(50, 49, 63)" stroke="none" stroke-width="1px">50</text><text x="161" y="0" dx="0em" dy="0.95em" style="text-anchor: middle; visibility: inherit; font-family: Roboto, sans-serif; font-size: 12px; font-weight: 200;" fill="rgb(50, 49, 63)" stroke="none" stroke-width="1px">60</text><text x="184" y="0" dx="0em" dy="0.95em" style="text-anchor: middle; visibility: inherit; font-family: Roboto, sans-serif; font-size: 12px; font-weight: 200;" fill="rgb(50, 49, 63)" stroke="none" stroke-width="1px">70</text><text x="207" y="0" dx="0em" dy="0.95em" style="text-anchor: middle; visibility: inherit; font-family: Roboto, sans-serif; font-size: 12px; font-weight: 200;" fill="rgb(50, 49, 63)" stroke="none" stroke-width="1px">80</text><text x="230" y="0" dx="0em" dy="0.95em" style="text-anchor: middle; visibility: inherit; font-family: Roboto, sans-serif; font-size: 12px; font-weight: 200;" fill="rgb(50, 49, 63)" stroke="none" stroke-width="1px">90</text><text x="253" y="0" dx="0em" dy="0.95em" style="text-anchor: middle; visibility: inherit; font-family: Roboto, sans-serif; font-size: 12px; font-weight: 200;" fill="rgb(50, 49, 63)" stroke="none" stroke-width="1px">100</text><text x="276" y="0" dx="0em" dy="0.95em" style="text-anchor: middle; visibility: hidden; font-family: Roboto, sans-serif; font-size: 12px; font-weight: 200;" fill="rgb(50, 49, 63)" stroke="none" stroke-width="1px">110</text></g><line x1="0" y1="0" x2="276" y2="0" fill="rgb(0, 0, 0)" stroke="rgb(204, 204, 204)" stroke-width="1px"></line></g></g></g></g></svg>