<svg viewBox="0 0 330 200" xmlns="http://www.w3.org/2000/svg"><g><g><g><g><g><line x1="43" y1="178" x2="38" y2="178" style="visibility: inherit;" fill="rgb(0, 0, 0)" stroke="rgb(204, 204, 204)" stroke-width="1px"></line><line x1="43" y1="163.16666666666669" x2="38" y2="163.16666666666669" style="visibility: inherit;" fill="rgb(0, 0, 0)" stroke="rgb(204, 204, 204)" stroke-width="1px"></line><line x1="43" y1="148.33333333333331" x2="38" y2="148.33333333333331" style="visibility: inherit;" fill="rgb(0, 0, 0)" stroke="rgb(204, 204, 204)" stroke-width="1px"></line><line x1="43" y1="133.50000000000003" x2="38" y2="133.50000000000003" style="visibility: inherit;" fill="rgb(0, 0, 0)" stroke="rgb(204, 204, 204)" stroke-width="1px"></line><line x1="43" y1="118.66666666666669" x2="38" y2="118.66666666666669" style="visibility: inherit;" fill="rgb(0, 0, 0)" stroke="rgb(204, 204, 204)" stroke-width="1px"></line><line x1="43" y1="103.83333333333336" x2="38" y2="103.83333333333336" style="visibility: inherit;" fill="rgb(0, 0, 0)" stroke="rgb(204, 204, 204)" stroke-width="1px"></line><line x1="43" y1="89.00000000000001" x2="38" y2="89.00000000000001" style="visibility: inherit;" fill="rgb(0, 0, 0)" stroke="rgb(204, 204, 204)" stroke-width="1px"></line><line x1="43" y1="74.16666666666669" x2="38" y2="74.16666666666669" style="visibility: inherit;" fill="rgb(0, 0, 0)" stroke="rgb(204, 204, 204)" stroke-width="1px"></line><line x1="43" y1="59.33333333333336" x2="38" y2="59.33333333333336" style="visibility: inherit;" fill="rgb(0, 0, 0)" stroke="rgb(204, 204, 204)" stroke-width="1px"></line><line x1="43" y1="44.50000000000002" x2="38" y2="44.50000000000002" style="visibility: inherit;" fill="rgb(0, 0, 0)" stroke="rgb(204, 204, 204)" stroke-width="1px"></line><line x1="43" y1="29.6666666666667" x2="38" y2="29.6666666666667" style="visibility: inherit;" fill="rgb(0, 0, 0)" stroke="rgb(204, 204, 204)" stroke-width="1px"></line><line x1="43" y1="14.83333333333334" x2="38" y2="14.83333333333334" style="visibility: inherit;" fill="rgb(0, 0, 0)" stroke="rgb(204, 204, 204)" stroke-width="1px"></line><line x1="43" y1="0" x2="38" y2="0" style="visibility: inherit;" fill="rgb(0, 0, 0)" stroke="rgb(204, 204, 204)" stroke-width="1px"></line></g><g transform="translate(33, 0)"><text x="0" y="178" dx="0em" dy="0.3em" style="text-anchor: end; visibility: hidden; font-family: Roboto, sans-serif; font-size: 12px; font-weight: 200;" fill="rgb(50, 49, 63)" stroke="none" stroke-width="1px">0.9</text><text x="0" y="163.16666666666669" dx="0em" dy="0.3em" style="text-anchor: end; visibility: inherit; font-family: Roboto, sans-serif; font-size: 12px; font-weight: 200;" fill="rgb(50, 49, 63)" stroke="none" stroke-width="1px">1</text><text x="0" y="148.33333333333331" dx="0em" dy="0.3em" style="text-anchor: end; visibility: hidden; font-family: Roboto, sans-serif; font-size: 12px; font-weight: 200;" fill="rgb(50, 49, 63)" stroke="none" stroke-width="1px">1.1</text><text x="0" y="133.50000000000003" dx="0em" dy="0.3em" style="text-anchor: end; visibility: inherit; font-family: Roboto, sans-serif; font-size: 12px; font-weight: 200;" fill="rgb(50, 49, 63)" stroke="none" stroke-width="1px">1.2</text><text x="0" y="118.66666666666669" dx="0em" dy="0.3em" style="text-anchor: end; visibility: hidden; font-family: Roboto, sans-serif; font-size: 12px; font-weight: 200;" fill="rgb(50, 49, 63)" stroke="none" stroke-width="1px">1.3</text><text x="0" y="103.83333333333336" dx="0em" dy="0.3em" style="text-anchor: end; visibility: inherit; font-family: Roboto, sans-serif; font-size: 12px; font-weight: 200;" fill="rgb(50, 49, 63)" stroke="none" stroke-width="1px">1.4</text><text x="0" y="89.00000000000001" dx="0em" dy="0.3em" style="text-anchor: end; visibility: hidden; font-family: Roboto, sans-serif; font-size: 12px; font-weight: 200;" fill="rgb(50, 49, 63)" stroke="none" stroke-width="1px">1.5</text><text x="0" y="74.16666666666669" dx="0em" dy="0.3em" style="text-anchor: end; visibility: inherit; font-family: Roboto, sans-serif; font-size: 12px; font-weight: 200;" fill="rgb(50, 49, 63)" stroke="none" stroke-width="1px">1.6</text><text x="0" y="59.33333333333336" dx="0em" dy="0.3em" style="text-anchor: end; visibility: hidden; font-family: Roboto, sans-serif; font-size: 12px; font-weight: 200;" fill="rgb(50, 49, 63)" stroke="none" stroke-width="1px">1.7</text><text x="0" y="44.50000000000002" dx="0em" dy="0.3em" style="text-anchor: end; visibility: inherit; font-family: Roboto, sans-serif; font-size: 12px; font-weight: 200;" fill="rgb(50, 49, 63)" stroke="none" stroke-width="1px">1.8</text><text x="0" y="29.6666666666667" dx="0em" dy="0.3em" style="text-anchor: end; visibility: hidden; font-family: Roboto, sans-serif; font-size: 12px; font-weight: 200;" fill="rgb(50, 49, 63)" stroke="none" stroke-width="1px">1.9</text><text x="0" y="14.83333333333334" dx="0em" dy="0.3em" style="text-anchor: end; visibility: inherit; font-family: Roboto, sans-serif; font-size: 12px; font-weight: 200;" fill="rgb(50, 49, 63)" stroke="none" stroke-width="1px">2</text><text x="0" y="0" dx="0em" dy="0.3em" style="text-anchor: end; visibility: hidden; font-family: Roboto, sans-serif; font-size: 12px; font-weight: 200;" fill="rgb(50, 49, 63)" stroke="none" stroke-width="1px">2.1</text></g><line x1="43" y1="0" x2="43" y2="178" fill="rgb(0, 0, 0)" stroke="rgb(204, 204, 204)" stroke-width="1px"></line></g></g><g transform="translate(43, 0)" clip-path="url(#clip_0)"><clipPath id="clip_0"><rect width="287" height="178"></rect></clipPath><g><g><g><line x1="0" y1="0" x2="0" y2="178" fill="rgb(0, 0, 0)" stroke="rgb(60, 60, 60)" stroke-width="1px" opacity="0.25"></line><line x1="23.916666666666664" y1="0" x2="23.916666666666664" y2="178" fill="rgb(0, 0, 0)" stroke="rgb(60, 60, 60)" stroke-width="1px" opacity="0.25"></line><line x1="47.83333333333333" y1="0" x2="47.83333333333333" y2="178" fill="rgb(0, 0, 0)" stroke="rgb(60, 60, 60)" stroke-width="1px" opacity="0.25"></line><line x1="71.75" y1="0" x2="71.75" y2="178" fill="rgb(0, 0, 0)" stroke="rgb(60, 60, 60)" stroke-width="1px" opacity="0.25"></line><line x1="95.66666666666666" y1="0" x2="95.66666666666666" y2="178" fill="rgb(0, 0, 0)" stroke="rgb(60, 60, 60)" stroke-width="1px" opacity="0.25"></line><line x1="119.58333333333334" y1="0" x2="119.58333333333334" y2="178" fill="rgb(0, 0, 0)" stroke="rgb(60, 60, 60)" stroke-width="1px" opacity="0.25"></line><line x1="143.5" y1="0" x2="143.5" y2="178" fill="rgb(0, 0, 0)" stroke="rgb(60, 60, 60)" stroke-width="1px" opacity="0.25"></line><line x1="167.41666666666669" y1="0" x2="167.41666666666669" y2="178" fill="rgb(0, 0, 0)" stroke="rgb(60, 60, 60)" stroke-width="1px" opacity="0.25"></line><line x1="191.33333333333331" y1="0" x2="191.33333333333331" y2="178" fill="rgb(0, 0, 0)" stroke="rgb(60, 60, 60)" stroke-width="1px" opacity="0.25"></line><line x1="215.25" y1="0" x2="215.25" y2="178" fill="rgb(0, 0, 0)" stroke="rgb(60, 60, 60)" stroke-width="1px" opacity="0.25"></line><line x1="239.16666666666669" y1="0" x2="239.16666666666669" y2="178" fill="rgb(0, 0, 0)" stroke="rgb(60, 60, 60)" stroke-width="1px" opacity="0.25"></line><line x1="263.0833333333333" y1="0" x2="263.0833333333333" y2="178" fill="rgb(0, 0, 0)" stroke="rgb(60, 60, 60)" stroke-width="1px" opacity="0.25"></line><line x1="287" y1="0" x2="287" y2="178" fill="rgb(0, 0, 0)" stroke="rgb(60, 60, 60)" stroke-width="1px" opacity="0.25"></line></g><g><line x1="0" y1="178" x2="287" y2="178" fill="rgb(0, 0, 0)" stroke="rgb(60, 60, 60)" stroke-width="1px" opacity="0.25"></line><line x1="0" y1="163.16666666666669" x2="287" y2="163.16666666666669" fill="rgb(0, 0, 0)" stroke="rgb(60, 60, 60)" stroke-width="1px" opacity="0.25"></line><line x1="0" y1="148.33333333333331" x2="287" y2="148.33333333333331" fill="rgb(0, 0, 0)" stroke="rgb(60, 60, 60)" stroke-width="1px" opacity="0.25"></line><line x1="0" y1="133.50000000000003" x2="287" y2="133.50000000000003" fill="rgb(0, 0, 0)" stroke="rgb(60, 60, 60)" stroke-width="1px" opacity="0.25"></line><line x1="0" y1="118.66666666666669" x2="287" y2="118.66666666666669" fill="rgb(0, 0, 0)" stroke="rgb(60, 60, 60)" stroke-width="1px" opacity="0.25"></line><line x1="0" y1="103.83333333333336" x2="287" y2="103.83333333333336" fill="rgb(0, 0, 0)" stroke="rgb(60, 60, 60)" stroke-width="1px" opacity="0.25"></line><line x1="0" y1="89.00000000000001" x2="287" y2="89.00000000000001" fill="rgb(0, 0, 0)" stroke="rgb(60, 60, 60)" stroke-width="1px" opacity="0.25"></line><line x1="0" y1="74.16666666666669" x2="287" y2="74.16666666666669" fill="rgb(0, 0, 0)" stroke="rgb(60, 60, 60)" stroke-width="1px" opacity="0.25"></line><line x1="0" y1="59.33333333333336" x2="287" y2="59.33333333333336" fill="rgb(0, 0, 0)" stroke="rgb(60, 60, 60)" stroke-width="1px" opacity="0.25"></line><line x1="0" y1="44.50000000000002" x2="287" y2="44.50000000000002" fill="rgb(0, 0, 0)" stroke="rgb(60, 60, 60)" stroke-width="1px" opacity="0.25"></line><line x1="0" y1="29.6666666666667" x2="287" y2="29.6666666666667" fill="rgb(0, 0, 0)" stroke="rgb(60, 60, 60)" stroke-width="1px" opacity="0.25"></line><line x1="0" y1="14.83333333333334" x2="287" y2="14.83333333333334" fill="rgb(0, 0, 0)" stroke="rgb(60, 60, 60)" stroke-width="1px" opacity="0.25"></line><line x1="0" y1="0" x2="287" y2="0" fill="rgb(0, 0, 0)" stroke="rgb(60, 60, 60)" stroke-width="1px" opacity="0.25"></line></g></g></g><g><g><line x1="0" y1="311.5" x2="287" y2="311.5" fill="rgb(0, 0, 0)" stroke="rgb(153, 153, 153)" stroke-width="1.5px"></line></g></g><g><g><line x1="23.916666666666664" y1="0" x2="23.916666666666664" y2="178" fill="rgb(0, 0, 0)" stroke="rgb(153, 153, 153)" stroke-width="1.5px"></line></g></g><g><g><g><g><g><path stroke="rgb(255, 112, 67)" stroke-width="2px" d="M23.916666666666664,132.14374665419263L26.30833333333333,144.14781984104505L28.700000000000003,144.75554535807348L31.09166666666667,142.68331611683467L33.483333333333334,137.55519085375178L35.875,131.96716315434008L38.266666666666666,124.5418312215238L40.65833333333333,114.900910692415L43.05,104.28168353117802L45.44166666666666,92.52448152643653L47.83333333333333,81.24652354191868L50.224999999999994,71.71815103888567L52.61666666666666,61.261496498063295L55.00833333333334,52.4921351507049L57.400000000000006,45.95247798302912L59.79166666666667,40.48978313107389L62.18333333333334,34.54250000319956L64.575,35.49757351803654L66.96666666666667,39.43761751093381L69.35833333333333,34.17184059826822L71.75,36.52214903431946L74.14166666666668,36.32792247533767L76.53333333333333,35.25450159110972L78.92500000000001,35.989560530593515L81.31666666666666,42.06799538512611L83.70833333333334,45.089638697144004L86.1,44.64478411473081L88.49166666666667,46.11238513805038L90.88333333333333,45.35870945136992L93.275,46.51140684148809L95.66666666666666,48.41922230145264L98.05833333333334,49.8120285687897L100.44999999999999,51.59040625375396L102.84166666666667,54.19276110497389L105.23333333333332,56.76421371773341L107.625,59.317422754109316L110.01666666666668,61.027138643407284L112.40833333333333,63.31434875510606L114.80000000000001,65.89997338853395L117.19166666666666,66.57861093303515L119.58333333333334,68.0464468899313L121.975,68.63509196503207L124.36666666666667,70.3732677351282L126.75833333333333,72.73761891751295L129.15,73.52445880316657L131.54166666666666,76.11869667057525L133.93333333333334,76.16802233991972L136.325,78.20853063009257L138.71666666666667,78.81930740717979L141.10833333333332,80.02580066144235L143.5,79.82651203899478L145.89166666666665,80.89967996590339L148.28333333333336,81.26260269702328L150.675,82.82511462032184L153.06666666666666,83.4110917187405L155.45833333333331,84.86280851677085L157.85000000000002,85.71538556716601L160.24166666666667,85.79212818836959L162.63333333333333,85.42238342397518L165.02499999999998,86.88033037021656L167.41666666666669,87.53244822110439L169.80833333333334,87.29691233633524L172.2,88.92563760359442L174.59166666666664,89.02255575096319L176.98333333333335,88.7420085698969L179.375,89.86100450692308L181.76666666666665,89.6919960597354L184.15833333333336,90.3550309626896L186.55,90.53146818577125L188.94166666666666,90.61927748605103L191.33333333333331,89.51543374854349L193.72500000000002,89.90844062963237L196.11666666666667,90.10384023785197L198.50833333333333,89.77405048876822L200.89999999999998,89.35253385763782L203.29166666666669,90.5476251644655L205.68333333333334,89.34383364034133L208.075,89.61607326448555L210.46666666666664,90.11307085972297L212.85833333333335,90.60193392276337L215.25,90.25391471274501L217.64166666666665,89.26226566781115L220.03333333333336,88.85657889591931L222.425,87.80030116961673L224.81666666666666,87.85963507182224L227.20833333333331,87.81206175147564L229.60000000000002,89.20503194338659L231.99166666666667,87.86639538450005L234.38333333333333,88.32941704361969L236.77499999999998,86.41096747136311L239.16666666666669,85.22625713047672L241.55833333333334,84.81264431301533L243.95,85.60855974515975L246.34166666666664,85.34410546811735L248.73333333333335,85.73980321453553L251.125,85.62753211145542L253.51666666666665,85.09999422240479L255.90833333333336,86.69069302880466L258.3,85.63506762148604" style="fill: none;" fill="none"></path></g></g></g></g><g opacity="0.2"><g><g><g><path stroke="rgb(255, 112, 67)" stroke-width="2px" d="M23.916666666666664,132.14374665419263L26.30833333333333,149.5496527751287L28.700000000000003,145.15208625793457L31.09166666666667,141.14235464731854L33.483333333333334,133.53150351842245L35.875,127.47950716813406L38.266666666666666,118.51700727144879L40.65833333333333,107.04235994815826L43.05,95.60783469676973L45.44166666666666,82.91223152478538L47.83333333333333,72.02224536736809L50.224999999999994,63.92340445518496L52.61666666666666,52.70664179325106L55.00833333333334,45.31742576758068L57.400000000000006,40.60192410151167L59.79166666666667,36.02033360799156L62.18333333333334,29.676554838816358L64.575,36.278996308644636L66.96666666666667,42.661288022995016L69.35833333333333,29.863478779792807L71.75,38.445128440856955L74.14166666666668,36.16900984446211L76.53333333333333,34.37624816099806L78.92500000000001,36.59097238381706L81.31666666666666,47.04126024246218L83.70833333333334,47.56189231077831L86.1,44.28081218401594L88.49166666666667,47.313149611155204L90.88333333333333,44.74206570784252L93.275,47.454522887865714L95.66666666666666,49.98016222318016L98.05833333333334,50.95159733295443L100.44999999999999,53.04544254144035L102.84166666666667,56.32196052869163L105.23333333333332,58.86812949180605L107.625,61.40641196568809L110.01666666666668,62.42599709828697L112.40833333333333,65.18570248285931L114.80000000000001,68.01548445224763L117.19166666666666,67.13385983308159L119.58333333333334,69.24740358193718L121.975,69.11671066284181L124.36666666666667,71.79541154702507L126.75833333333333,74.67208806673688L129.15,74.16823689142865L131.54166666666666,78.24125492572786L133.93333333333334,76.20837970574699L136.325,79.87803741296135L138.71666666666667,79.31903386116029L141.10833333333332,81.01293150583905L143.5,79.6634577115377L145.89166666666665,81.7777264515559L148.28333333333336,81.55953947703046L150.675,84.10353346665703L153.06666666666666,83.8905275265376L155.45833333333331,86.05057680606843L157.85000000000002,86.41294860839845L160.24166666666667,85.854917605718L162.63333333333333,85.11986498037976L165.02499999999998,88.07319605350496L167.41666666666669,88.06599919001263L169.80833333333334,87.1042011578878L172.2,90.2582310040792L174.59166666666664,89.1018524169922L176.98333333333335,88.51246996720634L179.375,90.77654663721722L181.76666666666665,89.55371642112733L184.15833333333336,90.89751406510673L186.55,90.67582591374718L188.94166666666666,90.69112145900728L191.33333333333331,88.61228887240094L193.72500000000002,90.22999171415967L196.11666666666667,90.26371264457704L198.50833333333333,89.50422251224519L200.89999999999998,89.00765661398572L203.29166666666669,91.52542714277905L205.68333333333334,88.35891330242158L208.075,89.83881477514905L210.46666666666664,90.51970525582634L212.85833333333335,91.00191279252373L215.25,89.96917172273002L217.64166666666665,88.45091644922894L220.03333333333336,88.52465335528058L222.425,86.93607393900555L224.81666666666666,87.90818099180859L227.20833333333331,87.77313812573753L229.60000000000002,90.34473482767743L231.99166666666667,86.7711472908656L234.38333333333333,88.70825294653577L236.77499999999998,84.84132691224418L239.16666666666669,84.25694866975151L241.55833333333334,84.47423382600151L243.95,86.25976328055066L246.34166666666664,85.12773378690086L248.73333333333335,86.06355591615043L251.125,85.53567393620811L253.51666666666665,84.66837231318158L255.90833333333336,87.99217387040459L258.3,84.77137410640718" style="fill: none;" fill="none"></path></g></g></g></g></g></g><g transform="translate(43, 178)" clip-path="url(#clip_1)"><clipPath id="clip_1"><rect width="287" height="22"></rect></clipPath><g><g><line x1="0" y1="0" x2="0" y2="5" style="visibility: inherit;" fill="rgb(0, 0, 0)" stroke="rgb(204, 204, 204)" stroke-width="1px"></line><line x1="23.916666666666664" y1="0" x2="23.916666666666664" y2="5" style="visibility: inherit;" fill="rgb(0, 0, 0)" stroke="rgb(204, 204, 204)" stroke-width="1px"></line><line x1="47.83333333333333" y1="0" x2="47.83333333333333" y2="5" style="visibility: inherit;" fill="rgb(0, 0, 0)" stroke="rgb(204, 204, 204)" stroke-width="1px"></line><line x1="71.75" y1="0" x2="71.75" y2="5" style="visibility: inherit;" fill="rgb(0, 0, 0)" stroke="rgb(204, 204, 204)" stroke-width="1px"></line><line x1="95.66666666666666" y1="0" x2="95.66666666666666" y2="5" style="visibility: inherit;" fill="rgb(0, 0, 0)" stroke="rgb(204, 204, 204)" stroke-width="1px"></line><line x1="119.58333333333334" y1="0" x2="119.58333333333334" y2="5" style="visibility: inherit;" fill="rgb(0, 0, 0)" stroke="rgb(204, 204, 204)" stroke-width="1px"></line><line x1="143.5" y1="0" x2="143.5" y2="5" style="visibility: inherit;" fill="rgb(0, 0, 0)" stroke="rgb(204, 204, 204)" stroke-width="1px"></line><line x1="167.41666666666669" y1="0" x2="167.41666666666669" y2="5" style="visibility: inherit;" fill="rgb(0, 0, 0)" stroke="rgb(204, 204, 204)" stroke-width="1px"></line><line x1="191.33333333333331" y1="0" x2="191.33333333333331" y2="5" style="visibility: inherit;" fill="rgb(0, 0, 0)" stroke="rgb(204, 204, 204)" stroke-width="1px"></line><line x1="215.25" y1="0" x2="215.25" y2="5" style="visibility: inherit;" fill="rgb(0, 0, 0)" stroke="rgb(204, 204, 204)" stroke-width="1px"></line><line x1="239.16666666666669" y1="0" x2="239.16666666666669" y2="5" style="visibility: inherit;" fill="rgb(0, 0, 0)" stroke="rgb(204, 204, 204)" stroke-width="1px"></line><line x1="263.0833333333333" y1="0" x2="263.0833333333333" y2="5" style="visibility: inherit;" fill="rgb(0, 0, 0)" stroke="rgb(204, 204, 204)" stroke-width="1px"></line><line x1="287" y1="0" x2="287" y2="5" style="visibility: inherit;" fill="rgb(0, 0, 0)" stroke="rgb(204, 204, 204)" stroke-width="1px"></line></g><g transform="translate(0, 8)"><text x="0" y="0" dx="0em" dy="0.95em" style="text-anchor: middle; visibility: hidden; font-family: Roboto, sans-serif; font-size: 12px; font-weight: 200;" fill="rgb(50, 49, 63)" stroke="none" stroke-width="1px">-10</text><text x="23.916666666666664" y="0" dx="0em" dy="0.95em" style="text-anchor: middle; visibility: inherit; font-family: Roboto, sans-serif; font-size: 12px; font-weight: 200;" fill="rgb(50, 49, 63)" stroke="none" stroke-width="1px">0</text><text x="47.83333333333333" y="0" dx="0em" dy="0.95em" style="text-anchor: middle; visibility: inherit; font-family: Roboto, sans-serif; font-size: 12px; font-weight: 200;" fill="rgb(50, 49, 63)" stroke="none" stroke-width="1px">10</text><text x="71.75" y="0" dx="0em" dy="0.95em" style="text-anchor: middle; visibility: inherit; font-family: Roboto, sans-serif; font-size: 12px; font-weight: 200;" fill="rgb(50, 49, 63)" stroke="none" stroke-width="1px">20</text><text x="95.66666666666666" y="0" dx="0em" dy="0.95em" style="text-anchor: middle; visibility: inherit; font-family: Roboto, sans-serif; font-size: 12px; font-weight: 200;" fill="rgb(50, 49, 63)" stroke="none" stroke-width="1px">30</text><text x="119.58333333333334" y="0" dx="0em" dy="0.95em" style="text-anchor: middle; visibility: inherit; font-family: Roboto, sans-serif; font-size: 12px; font-weight: 200;" fill="rgb(50, 49, 63)" stroke="none" stroke-width="1px">40</text><text x="143.5" y="0" dx="0em" dy="0.95em" style="text-anchor: middle; visibility: inherit; font-family: Roboto, sans-serif; font-size: 12px; font-weight: 200;" fill="rgb(50, 49, 63)" stroke="none" stroke-width="1px">50</text><text x="167.41666666666669" y="0" dx="0em" dy="0.95em" style="text-anchor: middle; visibility: inherit; font-family: Roboto, sans-serif; font-size: 12px; font-weight: 200;" fill="rgb(50, 49, 63)" stroke="none" stroke-width="1px">60</text><text x="191.33333333333331" y="0" dx="0em" dy="0.95em" style="text-anchor: middle; visibility: inherit; font-family: Roboto, sans-serif; font-size: 12px; font-weight: 200;" fill="rgb(50, 49, 63)" stroke="none" stroke-width="1px">70</text><text x="215.25" y="0" dx="0em" dy="0.95em" style="text-anchor: middle; visibility: inherit; font-family: Roboto, sans-serif; font-size: 12px; font-weight: 200;" fill="rgb(50, 49, 63)" stroke="none" stroke-width="1px">80</text><text x="239.16666666666669" y="0" dx="0em" dy="0.95em" style="text-anchor: middle; visibility: inherit; font-family: Roboto, sans-serif; font-size: 12px; font-weight: 200;" fill="rgb(50, 49, 63)" stroke="none" stroke-width="1px">90</text><text x="263.0833333333333" y="0" dx="0em" dy="0.95em" style="text-anchor: middle; visibility: inherit; font-family: Roboto, sans-serif; font-size: 12px; font-weight: 200;" fill="rgb(50, 49, 63)" stroke="none" stroke-width="1px">100</text><text x="287" y="0" dx="0em" dy="0.95em" style="text-anchor: middle; visibility: hidden; font-family: Roboto, sans-serif; font-size: 12px; font-weight: 200;" fill="rgb(50, 49, 63)" stroke="none" stroke-width="1px">110</text></g><line x1="0" y1="0" x2="287" y2="0" fill="rgb(0, 0, 0)" stroke="rgb(204, 204, 204)" stroke-width="1px"></line></g></g></g></g></svg>